<?xml version="1.0" encoding="utf-8"?>
<!-- Generator: Adobe Illustrator 23.0.6, SVG Export Plug-In . SVG Version: 6.00 Build 0)  -->
<svg version="1.1" fill="#ffffff80" id="Layer_1" xmlns="http://www.w3.org/2000/svg" xmlns:xlink="http://www.w3.org/1999/xlink" x="0px" y="0px"
	 viewBox="0 0 24 24" style="enable-background:new 0 0 24 24;" xml:space="preserve">
<path d="M20,18.3c0,0.9-0.3,1.7-0.8,2.3c-0.5,0.6-1.1,1-1.9,1H6.7c-0.7,0-1.4-0.3-1.9-1C4.3,20,4,19.2,4,18.3c0-0.7,0-1.4,0.1-2
	c0.1-0.6,0.2-1.3,0.4-1.9s0.4-1.2,0.7-1.6c0.3-0.4,0.7-0.8,1.2-1.1c0.5-0.3,1.1-0.4,1.7-0.4c1.1,1.1,2.4,1.6,3.9,1.6
	s2.8-0.5,3.9-1.6c0.6,0,1.2,0.1,1.7,0.4c0.5,0.3,0.9,0.7,1.2,1.1c0.3,0.5,0.5,1,0.7,1.6c0.2,0.6,0.3,1.3,0.4,1.9
	C20,16.9,20,17.6,20,18.3z M16.8,7.2c0,1.3-0.5,2.5-1.4,3.4C14.5,11.5,13.3,12,12,12s-2.5-0.5-3.4-1.4C7.7,9.6,7.2,8.5,7.2,7.2
	s0.5-2.4,1.4-3.4c1-1,2.1-1.4,3.4-1.4c1.3,0,2.4,0.5,3.4,1.4S16.8,5.9,16.8,7.2z"/>
</svg>
