<?xml version="1.0" encoding="utf-8"?>
<!-- Generator: Adobe Illustrator 23.0.6, SVG Export Plug-In . SVG Version: 6.00 Build 0)  -->
<svg version="1.1" fill="#ffffff80" id="Layer_1" xmlns="http://www.w3.org/2000/svg" xmlns:xlink="http://www.w3.org/1999/xlink" x="0px" y="0px"
	 viewBox="0 0 24 24" style="enable-background:new 0 0 24 24;" xml:space="preserve">
<path d="M11.2,11.2c-0.4,0.5-0.4,1.2,0,1.6c0.5,0.5,1.2,0.5,1.6,0c0.4-0.5,0.4-1.2,0-1.6C12.4,10.7,11.6,10.7,11.2,11.2z M12,3
	c-5,0-9,4-9,9s4,9,9,9s9-4,9-9S17,3,12,3z M16.6,8.4l-2.4,5.2c-0.1,0.3-0.3,0.5-0.6,0.6l-5.2,2.4c-0.6,0.3-1.2-0.3-1-1l2.4-5.2
	c0.1-0.3,0.3-0.5,0.6-0.6l5.2-2.4C16.2,7.1,16.9,7.8,16.6,8.4z"/>
</svg>
