<?xml version="1.0" encoding="utf-8"?>
<!-- Generator: Adobe Illustrator 23.0.6, SVG Export Plug-In . SVG Version: 6.00 Build 0)  -->
<svg version="1.1" fill="#ffffff80" id="Layer_1" xmlns="http://www.w3.org/2000/svg" xmlns:xlink="http://www.w3.org/1999/xlink" x="0px" y="0px"
	 viewBox="0 0 24 24" style="enable-background:new 0 0 24 24;" xml:space="preserve">
<path d="M10.9,12.6l6,6c-0.8,0.8-1.7,1.4-2.7,1.8s-2.1,0.7-3.3,0.7c-1.5,0-2.9-0.4-4.2-1.1s-2.3-1.8-3.1-3.1s-1.1-2.7-1.1-4.2
	s0.4-2.9,1.1-4.2s1.8-2.3,3.1-3.1s2.7-1.1,4.2-1.1V12.6z M13,12.7h8.5c0,1.1-0.2,2.2-0.7,3.3c-0.4,1-1.1,1.9-1.8,2.7L13,12.7z
	 M20.8,11.3h-8.4V2.8c1.5,0,2.9,0.4,4.2,1.1s2.3,1.8,3.1,3.1C20.4,8.3,20.8,9.8,20.8,11.3z"/>
</svg>
