<?xml version="1.0" encoding="utf-8"?>
<!-- Generator: Adobe Illustrator 23.0.6, SVG Export Plug-In . SVG Version: 6.00 Build 0)  -->
<svg version="1.1" fill="#ffffff80" id="Layer_1" xmlns="http://www.w3.org/2000/svg" xmlns:xlink="http://www.w3.org/1999/xlink" x="0px" y="0px"
	 viewBox="0 0 24 24" style="enable-background:new 0 0 24 24;" xml:space="preserve">
<g>
	<path d="M9,6.1v14.6c0,0.2,0,0.4-0.1,0.5s-0.2,0.2-0.4,0.2c-0.1,0-0.2,0-0.3-0.1l-4.7-2.9c-0.1-0.1-0.3-0.2-0.4-0.4S3,17.6,3,17.4
		V3.2c0-0.2,0-0.3,0.1-0.4c0.1-0.1,0.2-0.2,0.3-0.2c0.1,0,0.2,0.1,0.4,0.2L9,6.1C9,6,9,6.1,9,6.1z"/>
	<polygon points="9.6,7.3 15,18.1 9.6,14.8 	"/>
	<path d="M21,7.6v13.1c0,0.2,0,0.4-0.1,0.5c-0.1,0.1-0.2,0.2-0.4,0.2c-0.2,0-0.3-0.1-0.5-0.2l-4.4-2.7L21,7.6z"/>
	<path d="M21,6.1c0,0-0.9,1.8-2.6,5.2c-1.7,3.5-2.7,5.5-3,6.1l-3.9-7.9l3.3-6.6c0.1-0.2,0.3-0.3,0.5-0.3c0.1,0,0.2,0,0.3,0.1L21,6.1
		C21,6,21,6,21,6.1z"/>
</g>
</svg>
