<?xml version="1.0" encoding="utf-8"?>
<!-- Generator: Adobe Illustrator 23.0.6, SVG Export Plug-In . SVG Version: 6.00 Build 0)  -->
<svg version="1.1" fill="#ffffff80" id="Layer_1" xmlns="http://www.w3.org/2000/svg" xmlns:xlink="http://www.w3.org/1999/xlink" x="0px" y="0px"
	 viewBox="0 0 24 24" style="enable-background:new 0 0 24 24;" xml:space="preserve">
<path d="M8.2,12c-1.1,0-2,0.5-2.8,1.3H4c-0.6,0-1.1-0.1-1.4-0.4S2,12.2,2,11.7C2,9.2,2.4,8,3.3,8c0,0,0.2,0.1,0.5,0.2s0.6,0.3,1,0.4
	C5.2,8.8,5.6,8.9,6,8.9c0.5,0,0.9-0.1,1.4-0.2c0,0.3,0,0.5,0,0.7C7.3,10.3,7.6,11.2,8.2,12z M19.3,18.6c0,0.8-0.3,1.5-0.8,2
	c-0.5,0.5-1.2,0.7-2,0.7H7.4c-0.8,0-1.5-0.2-2-0.7c-0.5-0.5-0.8-1.1-0.8-2c0-0.4,0-0.7,0-1.1c0-0.3,0.1-0.7,0.1-1.1
	C4.9,16,5,15.6,5.1,15.3c0.1-0.3,0.3-0.7,0.4-1C5.7,14,6,13.7,6.2,13.4c0.3-0.2,0.6-0.4,0.9-0.6c0.3-0.1,0.7-0.2,1.2-0.2
	c0.1,0,0.2,0.1,0.5,0.2c0.2,0.2,0.5,0.3,0.8,0.5c0.3,0.2,0.7,0.3,1.1,0.5c0.5,0.2,0.9,0.2,1.4,0.2c0.5,0,0.9-0.1,1.4-0.2
	c0.5-0.2,0.8-0.3,1.1-0.5c0.3-0.2,0.5-0.3,0.8-0.5c0.2-0.2,0.4-0.2,0.4-0.2c0.4,0,0.8,0.1,1.2,0.2s0.6,0.3,0.9,0.6
	c0.2,0.2,0.5,0.5,0.6,0.8c0.2,0.3,0.3,0.7,0.5,1c0.1,0.3,0.2,0.7,0.3,1.1c0.1,0.4,0.1,0.8,0.1,1.1C19.3,17.9,19.3,18.3,19.3,18.6z
	 M8.7,5.3c0,0.7-0.3,1.4-0.8,1.9S6.7,8,6,8C5.3,8,4.6,7.7,4.1,7.2S3.3,6.1,3.3,5.3c0-0.7,0.3-1.4,0.8-1.9S5.3,2.6,6,2.7
	s1.4,0.3,1.9,0.8S8.7,4.6,8.7,5.3z M16,9.3c0,1.1-0.4,2-1.2,2.8c-0.8,0.8-1.7,1.2-2.8,1.2s-2-0.4-2.8-1.2C8.4,11.4,8,10.4,8,9.3
	c0-1.1,0.4-2.1,1.2-2.8C10,5.7,10.9,5.3,12,5.3s2.1,0.4,2.8,1.2C15.6,7.3,16,8.2,16,9.3z M22,11.7c0,0.5-0.2,1-0.6,1.2
	c-0.4,0.3-0.9,0.4-1.4,0.4h-1.4c-0.7-0.9-1.6-1.3-2.8-1.3c0.6-0.8,0.8-1.7,0.8-2.7c0-0.2,0-0.4-0.1-0.7c0.5,0.2,0.9,0.2,1.4,0.2
	c0.4,0,0.8-0.1,1.2-0.2c0.4-0.2,0.8-0.3,1-0.4S20.7,8,20.7,8C21.6,8,22,9.2,22,11.7z M20.7,5.3c0,0.7-0.3,1.4-0.8,1.9
	C19.4,7.7,18.7,8,18,8c-0.7,0-1.4-0.3-1.9-0.8c-0.5-0.5-0.8-1.2-0.8-1.9c0-0.7,0.3-1.4,0.8-1.9c0.5-0.5,1.2-0.8,1.9-0.8
	c0.7,0,1.4,0.3,1.9,0.8C20.4,3.9,20.7,4.6,20.7,5.3z"/>
</svg>
